<svg xmlns="http://www.w3.org/2000/svg" viewBox="0 0 800 600" role="img" aria-label="Dock crew checking a consignment manifest" width="800" height="600">
<rect width="800" height="600" fill="#12414a"/><g transform="translate(430,560)"><rect x="0" y="-32" width="74" height="28" rx="2" fill="#e8eae7"/><rect x="12" y="-28" width="3" height="20" fill="#0c2a2f" opacity="0.16"/><rect x="24" y="-28" width="3" height="20" fill="#0c2a2f" opacity="0.16"/><rect x="36" y="-28" width="3" height="20" fill="#0c2a2f" opacity="0.16"/><rect x="48" y="-28" width="3" height="20" fill="#0c2a2f" opacity="0.16"/><rect x="60" y="-28" width="3" height="20" fill="#0c2a2f" opacity="0.16"/><rect x="79" y="-32" width="74" height="28" rx="2" fill="#e8eae7"/><rect x="91" y="-28" width="3" height="20" fill="#0c2a2f" opacity="0.16"/><rect x="103" y="-28" width="3" height="20" fill="#0c2a2f" opacity="0.16"/><rect x="115" y="-28" width="3" height="20" fill="#0c2a2f" opacity="0.16"/><rect x="127" y="-28" width="3" height="20" fill="#0c2a2f" opacity="0.16"/><rect x="139" y="-28" width="3" height="20" fill="#0c2a2f" opacity="0.16"/><rect x="158" y="-32" width="74" height="28" rx="2" fill="#e8eae7"/><rect x="170" y="-28" width="3" height="20" fill="#0c2a2f" opacity="0.16"/><rect x="182" y="-28" width="3" height="20" fill="#0c2a2f" opacity="0.16"/><rect x="194" y="-28" width="3" height="20" fill="#0c2a2f" opacity="0.16"/><rect x="206" y="-28" width="3" height="20" fill="#0c2a2f" opacity="0.16"/><rect x="218" y="-28" width="3" height="20" fill="#0c2a2f" opacity="0.16"/><rect x="0" y="-64" width="74" height="28" rx="2" fill="#3f8f7a"/><rect x="12" y="-60" width="3" height="20" fill="#0c2a2f" opacity="0.16"/><rect x="24" y="-60" width="3" height="20" fill="#0c2a2f" opacity="0.16"/><rect x="36" y="-60" width="3" height="20" fill="#0c2a2f" opacity="0.16"/><rect x="48" y="-60" width="3" height="20" fill="#0c2a2f" opacity="0.16"/><rect x="60" y="-60" width="3" height="20" fill="#0c2a2f" opacity="0.16"/><rect x="79" y="-64" width="74" height="28" rx="2" fill="#3f8f7a"/><rect x="91" y="-60" width="3" height="20" fill="#0c2a2f" opacity="0.16"/><rect x="103" y="-60" width="3" height="20" fill="#0c2a2f" opacity="0.16"/><rect x="115" y="-60" width="3" height="20" fill="#0c2a2f" opacity="0.16"/><rect x="127" y="-60" width="3" height="20" fill="#0c2a2f" opacity="0.16"/><rect x="139" y="-60" width="3" height="20" fill="#0c2a2f" opacity="0.16"/><rect x="158" y="-64" width="74" height="28" rx="2" fill="#ffc233"/><rect x="170" y="-60" width="3" height="20" fill="#0c2a2f" opacity="0.16"/><rect x="182" y="-60" width="3" height="20" fill="#0c2a2f" opacity="0.16"/><rect x="194" y="-60" width="3" height="20" fill="#0c2a2f" opacity="0.16"/><rect x="206" y="-60" width="3" height="20" fill="#0c2a2f" opacity="0.16"/><rect x="218" y="-60" width="3" height="20" fill="#0c2a2f" opacity="0.16"/><rect x="79" y="-96" width="74" height="28" rx="2" fill="#e8eae7"/><rect x="91" y="-92" width="3" height="20" fill="#0c2a2f" opacity="0.16"/><rect x="103" y="-92" width="3" height="20" fill="#0c2a2f" opacity="0.16"/><rect x="115" y="-92" width="3" height="20" fill="#0c2a2f" opacity="0.16"/><rect x="127" y="-92" width="3" height="20" fill="#0c2a2f" opacity="0.16"/><rect x="139" y="-92" width="3" height="20" fill="#0c2a2f" opacity="0.16"/><rect x="0" y="-128" width="74" height="28" rx="2" fill="#c9563a"/><rect x="12" y="-124" width="3" height="20" fill="#0c2a2f" opacity="0.16"/><rect x="24" y="-124" width="3" height="20" fill="#0c2a2f" opacity="0.16"/><rect x="36" y="-124" width="3" height="20" fill="#0c2a2f" opacity="0.16"/><rect x="48" y="-124" width="3" height="20" fill="#0c2a2f" opacity="0.16"/><rect x="60" y="-124" width="3" height="20" fill="#0c2a2f" opacity="0.16"/><rect x="79" y="-128" width="74" height="28" rx="2" fill="#ffc233"/><rect x="91" y="-124" width="3" height="20" fill="#0c2a2f" opacity="0.16"/><rect x="103" y="-124" width="3" height="20" fill="#0c2a2f" opacity="0.16"/><rect x="115" y="-124" width="3" height="20" fill="#0c2a2f" opacity="0.16"/><rect x="127" y="-124" width="3" height="20" fill="#0c2a2f" opacity="0.16"/><rect x="139" y="-124" width="3" height="20" fill="#0c2a2f" opacity="0.16"/><rect x="158" y="-128" width="74" height="28" rx="2" fill="#e8eae7"/><rect x="170" y="-124" width="3" height="20" fill="#0c2a2f" opacity="0.16"/><rect x="182" y="-124" width="3" height="20" fill="#0c2a2f" opacity="0.16"/><rect x="194" y="-124" width="3" height="20" fill="#0c2a2f" opacity="0.16"/><rect x="206" y="-124" width="3" height="20" fill="#0c2a2f" opacity="0.16"/><rect x="218" y="-124" width="3" height="20" fill="#0c2a2f" opacity="0.16"/><rect x="0" y="-160" width="74" height="28" rx="2" fill="#ffc233"/><rect x="12" y="-156" width="3" height="20" fill="#0c2a2f" opacity="0.16"/><rect x="24" y="-156" width="3" height="20" fill="#0c2a2f" opacity="0.16"/><rect x="36" y="-156" width="3" height="20" fill="#0c2a2f" opacity="0.16"/><rect x="48" y="-156" width="3" height="20" fill="#0c2a2f" opacity="0.16"/><rect x="60" y="-156" width="3" height="20" fill="#0c2a2f" opacity="0.16"/><rect x="79" y="-160" width="74" height="28" rx="2" fill="#3f8f7a"/><rect x="91" y="-156" width="3" height="20" fill="#0c2a2f" opacity="0.16"/><rect x="103" y="-156" width="3" height="20" fill="#0c2a2f" opacity="0.16"/><rect x="115" y="-156" width="3" height="20" fill="#0c2a2f" opacity="0.16"/><rect x="127" y="-156" width="3" height="20" fill="#0c2a2f" opacity="0.16"/><rect x="139" y="-156" width="3" height="20" fill="#0c2a2f" opacity="0.16"/><rect x="158" y="-160" width="74" height="28" rx="2" fill="#ffc233"/><rect x="170" y="-156" width="3" height="20" fill="#0c2a2f" opacity="0.16"/><rect x="182" y="-156" width="3" height="20" fill="#0c2a2f" opacity="0.16"/><rect x="194" y="-156" width="3" height="20" fill="#0c2a2f" opacity="0.16"/><rect x="206" y="-156" width="3" height="20" fill="#0c2a2f" opacity="0.16"/><rect x="218" y="-156" width="3" height="20" fill="#0c2a2f" opacity="0.16"/></g><rect x="0" y="470" width="800" height="130" fill="#0b262c"/><g transform="translate(160,470) scale(1.0)"><circle cx="0" cy="-210" r="30" fill="#e8c9a8"/><path d="M-32 -228 a32 26 0 0 1 64 0 z" fill="#ffc233"/><path d="M-40 -176 h80 v120 h-80 z" fill="#ffc233"/><rect x="-40" y="-130" width="80" height="10" fill="#ffffff" opacity="0.8"/><rect x="-40" y="-56" width="34" height="56" fill="#0d2c33"/><rect x="6" y="-56" width="34" height="56" fill="#0d2c33"/></g><g transform="translate(280,470) scale(0.9)"><circle cx="0" cy="-210" r="30" fill="#e8c9a8"/><path d="M-32 -228 a32 26 0 0 1 64 0 z" fill="#ffc233"/><path d="M-40 -176 h80 v120 h-80 z" fill="#ffc233"/><rect x="-40" y="-130" width="80" height="10" fill="#ffffff" opacity="0.8"/><rect x="-40" y="-56" width="34" height="56" fill="#0d2c33"/><rect x="6" y="-56" width="34" height="56" fill="#0d2c33"/></g><g transform="translate(210,300)"><rect x="0" y="0" width="90" height="110" rx="4" fill="#eff2f0"/><rect x="10" y="14" width="70" height="6" fill="#5a6e71"/><rect x="10" y="32" width="52" height="6" fill="#5a6e71"/><rect x="10" y="50" width="66" height="6" fill="#5a6e71"/><rect x="10" y="76" width="40" height="18" fill="#1f7a8c"/></g></svg>